<svg width="113" height="26" viewBox="0 0 113 26" fill="none" xmlns="http://www.w3.org/2000/svg">
<path d="M25.3369 16.6755C24.4284 16.6755 23.623 16.4817 22.9204 16.0941C22.2179 15.7005 21.6638 15.1282 21.258 14.3772C20.8583 13.6201 20.6584 12.6966 20.6584 11.6064C20.6584 10.5163 20.8734 9.58365 21.3034 8.80845C21.7395 8.03325 22.333 7.43974 23.0839 7.02791C23.8349 6.61003 24.6798 6.40109 25.6185 6.40109C26.1999 6.40109 26.7601 6.46165 27.2991 6.58278C27.8381 6.69785 28.4225 6.95524 29.0524 7.35495L28.471 8.97197C27.9925 8.63888 27.508 8.39966 27.0175 8.25431C26.533 8.10895 26.0485 8.03628 25.564 8.03628C24.6616 8.03628 23.9409 8.34515 23.4019 8.96289C22.869 9.58063 22.6025 10.4073 22.6025 11.4429C22.6025 12.5452 22.8478 13.4173 23.3383 14.0592C23.8289 14.6951 24.4769 15.0131 25.2824 15.0131C25.676 15.0131 26.0303 14.9798 26.3452 14.9132C26.6662 14.8405 27.0235 14.7072 27.4172 14.5134V12.6966H25.2733V11.1704H29.1523V15.4582C28.4195 15.9488 27.7564 16.2758 27.1628 16.4393C26.5754 16.5968 25.9667 16.6755 25.3369 16.6755Z" fill="#C69B92"/>
<path d="M31.06 16.512V12.3241C31.06 11.6579 31.0207 11.0917 30.9419 10.6253C30.8693 10.1529 30.7966 9.79865 30.7239 9.56246H32.5953C32.6438 9.70781 32.6952 9.92583 32.7497 10.2165C32.8042 10.5072 32.8436 10.7343 32.8678 10.8979C33.2009 10.4194 33.5643 10.056 33.958 9.80773C34.3516 9.55337 34.7029 9.42619 35.0117 9.42619C35.6537 9.42619 36.1079 9.68055 36.3744 10.1893C36.6469 10.6919 36.7832 11.2915 36.7832 11.988L35.2661 12.2242C35.2419 11.9153 35.1662 11.667 35.039 11.4793C34.9118 11.2915 34.7029 11.1976 34.4122 11.1976C34.2608 11.1976 34.0882 11.2824 33.8944 11.452C33.7006 11.6155 33.5189 11.8275 33.3493 12.0879C33.1797 12.3483 33.0525 12.6209 32.9678 12.9055V16.512H31.06Z" fill="#C69B92"/>
<path d="M39.881 16.6755C39.4268 16.6755 39.021 16.5786 38.6637 16.3848C38.3124 16.191 38.0368 15.9336 37.837 15.6127C37.6371 15.2917 37.5372 14.9465 37.5372 14.577C37.5372 14.2258 37.6159 13.8775 37.7734 13.5323C37.9369 13.1811 38.2155 12.8783 38.6092 12.6239C39.0089 12.3695 39.56 12.209 40.2625 12.1424C40.42 12.1243 40.6229 12.1061 40.8712 12.0879C41.1255 12.0697 41.3708 12.0546 41.607 12.0425C41.8432 12.0243 42.0067 12.0152 42.0976 12.0152V11.6791C42.0976 11.4248 41.9522 11.24 41.6615 11.125C41.3769 11.0099 40.9772 10.9524 40.4624 10.9524C40.1051 10.9524 39.7447 11.025 39.3813 11.1704C39.024 11.3157 38.6455 11.5277 38.2458 11.8063C38.2518 11.6549 38.2579 11.3945 38.264 11.025C38.2761 10.6496 38.2942 10.3225 38.3185 10.0439C38.7061 9.89252 39.1118 9.75323 39.5358 9.62605C39.9658 9.49281 40.4684 9.42619 41.0438 9.42619C41.9341 9.42619 42.6487 9.61091 43.1877 9.98034C43.7328 10.3437 44.0053 10.7949 44.0053 11.3339V13.9956C44.0053 14.4862 44.0477 14.9344 44.1325 15.3401C44.2233 15.7398 44.3414 16.1305 44.4868 16.512H42.6426C42.6002 16.4151 42.5457 16.2849 42.4791 16.1214C42.4125 15.9579 42.355 15.7822 42.3065 15.5945C41.925 15.976 41.5253 16.2516 41.1074 16.4212C40.6895 16.5907 40.2807 16.6755 39.881 16.6755ZM40.3806 15.1221C40.6653 15.1221 40.9408 15.0615 41.2073 14.9404C41.4738 14.8193 41.7705 14.5377 42.0976 14.0956V13.278C41.9643 13.284 41.7372 13.3022 41.4162 13.3325C41.0953 13.3567 40.847 13.3809 40.6713 13.4052C40.1989 13.4536 39.8749 13.5656 39.6993 13.7413C39.5297 13.9108 39.4449 14.1077 39.4449 14.3318C39.4449 14.5498 39.5297 14.7375 39.6993 14.895C39.8749 15.0464 40.102 15.1221 40.3806 15.1221Z" fill="#C69B92"/>
<path d="M48.6383 16.6755C48.0327 16.6755 47.4725 16.5998 46.9577 16.4484C46.449 16.291 46.0463 16.1093 45.7495 15.9034L46.122 14.2318C46.4611 14.5104 46.8699 14.7345 47.3483 14.9041C47.8328 15.0676 48.275 15.1494 48.6747 15.1494C48.9957 15.1494 49.2561 15.0888 49.4559 14.9677C49.6618 14.8405 49.7648 14.6982 49.7648 14.5407C49.7648 14.3408 49.6588 14.1652 49.4468 14.0138C49.2409 13.8563 48.814 13.708 48.1659 13.5687C47.524 13.4294 47.0334 13.2628 46.6943 13.069C46.3551 12.8752 46.122 12.6542 45.9948 12.4059C45.8736 12.1576 45.8131 11.8911 45.8131 11.6064C45.8131 11.4429 45.8585 11.24 45.9494 10.9978C46.0402 10.7495 46.1946 10.5072 46.4127 10.271C46.6367 10.0288 46.9396 9.82893 47.3211 9.67147C47.7087 9.50795 48.1932 9.42619 48.7746 9.42619C49.3318 9.42619 49.8132 9.48675 50.219 9.60788C50.6308 9.72295 50.967 9.84407 51.2274 9.97125L50.9639 11.5792C50.7096 11.4399 50.3886 11.2976 50.001 11.1522C49.6134 11.0008 49.1834 10.9251 48.711 10.9251C48.3113 10.9251 48.0357 10.9948 47.8843 11.1341C47.7329 11.2673 47.6572 11.4036 47.6572 11.5429C47.6572 11.7124 47.7329 11.8457 47.8843 11.9426C48.0418 12.0334 48.4203 12.1394 49.0199 12.2605C49.4923 12.3514 49.9223 12.4785 50.3099 12.6421C50.7035 12.8056 51.0184 13.0266 51.2546 13.3052C51.4908 13.5838 51.6089 13.9381 51.6089 14.3681C51.6089 14.8041 51.4757 15.1978 51.2092 15.5491C50.9488 15.8943 50.5945 16.1698 50.1463 16.3757C49.6982 16.5756 49.1955 16.6755 48.6383 16.6755Z" fill="#C69B92"/>
<path d="M55.6878 16.6755C55.0822 16.6755 54.522 16.5998 54.0072 16.4484C53.4985 16.291 53.0957 16.1093 52.799 15.9034L53.1714 14.2318C53.5106 14.5104 53.9194 14.7345 54.3978 14.9041C54.8823 15.0676 55.3244 15.1494 55.7242 15.1494C56.0451 15.1494 56.3056 15.0888 56.5054 14.9677C56.7113 14.8405 56.8143 14.6982 56.8143 14.5407C56.8143 14.3408 56.7083 14.1652 56.4963 14.0138C56.2904 13.8563 55.8634 13.708 55.2154 13.5687C54.5735 13.4294 54.0829 13.2628 53.7438 13.069C53.4046 12.8752 53.1714 12.6542 53.0443 12.4059C52.9231 12.1576 52.8626 11.8911 52.8626 11.6064C52.8626 11.4429 52.908 11.24 52.9988 10.9978C53.0897 10.7495 53.2441 10.5072 53.4621 10.271C53.6862 10.0288 53.989 9.82893 54.3706 9.67147C54.7582 9.50795 55.2427 9.42619 55.8241 9.42619C56.3813 9.42619 56.8627 9.48675 57.2685 9.60788C57.6803 9.72295 58.0164 9.84407 58.2769 9.97125L58.0134 11.5792C57.7591 11.4399 57.4381 11.2976 57.0505 11.1522C56.6629 11.0008 56.2329 10.9251 55.7605 10.9251C55.3608 10.9251 55.0852 10.9948 54.9338 11.1341C54.7824 11.2673 54.7067 11.4036 54.7067 11.5429C54.7067 11.7124 54.7824 11.8457 54.9338 11.9426C55.0913 12.0334 55.4698 12.1394 56.0694 12.2605C56.5417 12.3514 56.9717 12.4785 57.3593 12.6421C57.753 12.8056 58.0679 13.0266 58.3041 13.3052C58.5403 13.5838 58.6584 13.9381 58.6584 14.3681C58.6584 14.8041 58.5252 15.1978 58.2587 15.5491C57.9983 15.8943 57.644 16.1698 57.1958 16.3757C56.7477 16.5756 56.245 16.6755 55.6878 16.6755Z" fill="#C69B92"/>
<path d="M60.0847 16.512C60.0847 16.512 60.0847 16.3576 60.0847 16.0487C60.0847 15.7338 60.0847 15.325 60.0847 14.8223C60.0847 14.3136 60.0847 13.7625 60.0847 13.169C60.0847 12.5694 60.0847 11.9789 60.0847 11.3975C60.0847 10.8161 60.0847 10.2953 60.0847 9.83499C60.0847 9.37471 60.0847 9.03556 60.0847 8.81754C60.0847 8.08473 60.0786 7.44277 60.0665 6.89165C60.0604 6.33447 60.0332 5.9075 59.9847 5.61075H61.9924C61.9924 5.61075 61.9924 5.77427 61.9924 6.10131C61.9924 6.42834 61.9924 6.83714 61.9924 7.3277C61.9924 7.8122 61.9924 8.30578 61.9924 8.80845C61.9924 9.30507 61.9924 9.73506 61.9924 10.0984C61.9924 10.4558 61.9924 10.6647 61.9924 10.7253C62.3255 10.2953 62.7282 9.97125 63.2006 9.75323C63.679 9.5352 64.1605 9.42619 64.645 9.42619C66.0319 9.42619 66.7253 10.371 66.7253 12.2605C66.7253 12.4846 66.7253 12.7753 66.7253 13.1326C66.7253 13.4839 66.7253 13.8533 66.7253 14.2409C66.7253 14.6285 66.7253 14.9949 66.7253 15.3401C66.7253 15.6853 66.7253 15.9669 66.7253 16.185C66.7253 16.403 66.7253 16.512 66.7253 16.512H64.8176C64.8176 16.512 64.8176 16.3667 64.8176 16.076C64.8176 15.7792 64.8176 15.4189 64.8176 14.9949C64.8176 14.5649 64.8176 14.147 64.8176 13.7413C64.8176 13.3294 64.8176 13.0054 64.8176 12.7692C64.8176 12.1031 64.7328 11.6579 64.5633 11.4338C64.3937 11.2098 64.1272 11.0977 63.7638 11.0977C63.3762 11.0977 63.0129 11.2552 62.6737 11.5701C62.3406 11.879 62.1135 12.209 61.9924 12.5603V16.512H60.0847Z" fill="#C69B92"/>
<path d="M71.4583 16.6755C70.5014 16.6755 69.7171 16.3667 69.1055 15.7489C68.4938 15.1251 68.1879 14.2288 68.1879 13.0599C68.1879 12.2787 68.3424 11.6186 68.6512 11.0795C68.9662 10.5405 69.381 10.1317 69.8958 9.85316C70.4166 9.56851 70.9829 9.42619 71.5946 9.42619C72.5575 9.42619 73.3418 9.73809 73.9474 10.3619C74.5591 10.9857 74.865 11.885 74.865 13.0599C74.865 13.8412 74.7075 14.5013 74.3926 15.0403C74.0837 15.5733 73.6719 15.9791 73.1571 16.2577C72.6423 16.5362 72.076 16.6755 71.4583 16.6755ZM71.531 15.1494C71.967 15.1494 72.3122 14.9646 72.5666 14.5952C72.827 14.2197 72.9572 13.708 72.9572 13.0599C72.9572 12.4059 72.8361 11.8941 72.5939 11.5247C72.3516 11.1492 71.9973 10.9615 71.531 10.9615C71.0889 10.9615 70.7376 11.1492 70.4772 11.5247C70.2228 11.8941 70.0957 12.4059 70.0957 13.0599C70.0957 13.708 70.2168 14.2197 70.459 14.5952C70.7073 14.9646 71.0647 15.1494 71.531 15.1494Z" fill="#C69B92"/>
<path d="M76.4638 19.846V13.2144C76.4638 12.3665 76.4456 11.6428 76.4093 11.0432C76.379 10.4436 76.2852 9.95006 76.1277 9.56246H77.9991C78.0475 9.66541 78.096 9.81379 78.1444 10.0076C78.1989 10.2014 78.2413 10.4406 78.2716 10.7253C78.5865 10.3437 78.9529 10.0318 79.3708 9.78957C79.7948 9.54732 80.252 9.42619 80.7426 9.42619C81.2513 9.42619 81.6964 9.57457 82.078 9.87133C82.4595 10.1681 82.7532 10.5769 82.9591 11.0977C83.1711 11.6125 83.2771 12.203 83.2771 12.8692C83.2771 13.6444 83.1408 14.3196 82.8683 14.895C82.5958 15.4643 82.2294 15.9034 81.7691 16.2122C81.3088 16.5211 80.8001 16.6755 80.2429 16.6755C79.8856 16.6755 79.5646 16.621 79.28 16.512C78.9953 16.4091 78.6925 16.2637 78.3715 16.076V17.5295C78.3715 18.0745 78.3836 18.5227 78.4079 18.874C78.4382 19.2313 78.4836 19.5553 78.5441 19.846H76.4638ZM79.7887 15.113C80.2066 15.113 80.573 14.9313 80.8879 14.568C81.2089 14.1985 81.3694 13.7019 81.3694 13.0781C81.3694 12.4604 81.2543 11.9698 81.0242 11.6064C80.794 11.237 80.4731 11.0523 80.0612 11.0523C79.7584 11.0523 79.4495 11.1795 79.1346 11.4338C78.8197 11.6821 78.5653 12.0486 78.3715 12.5331V14.468C78.7228 14.7284 78.9893 14.901 79.171 14.9858C79.3526 15.0706 79.5586 15.113 79.7887 15.113Z" fill="#C69B92"/>
<path d="M84.8759 19.846V13.2144C84.8759 12.3665 84.8578 11.6428 84.8214 11.0432C84.7912 10.4436 84.6973 9.95006 84.5398 9.56246H86.4112C86.4597 9.66541 86.5081 9.81379 86.5566 10.0076C86.6111 10.2014 86.6535 10.4406 86.6837 10.7253C86.9987 10.3437 87.3651 10.0318 87.783 9.78957C88.2069 9.54732 88.6641 9.42619 89.1547 9.42619C89.6634 9.42619 90.1086 9.57457 90.4901 9.87133C90.8717 10.1681 91.1654 10.5769 91.3713 11.0977C91.5833 11.6125 91.6892 12.203 91.6892 12.8692C91.6892 13.6444 91.553 14.3196 91.2804 14.895C91.0079 15.4643 90.6415 15.9034 90.1812 16.2122C89.721 16.5211 89.2122 16.6755 88.6551 16.6755C88.2977 16.6755 87.9768 16.621 87.6921 16.512C87.4075 16.4091 87.1047 16.2637 86.7837 16.076V17.5295C86.7837 18.0745 86.7958 18.5227 86.82 18.874C86.8503 19.2313 86.8957 19.5553 86.9563 19.846H84.8759ZM88.2008 15.113C88.6187 15.113 88.9851 14.9313 89.3 14.568C89.621 14.1985 89.7815 13.7019 89.7815 13.0781C89.7815 12.4604 89.6665 11.9698 89.4363 11.6064C89.2062 11.237 88.8852 11.0523 88.4734 11.0523C88.1706 11.0523 87.8617 11.1795 87.5468 11.4338C87.2318 11.6821 86.9775 12.0486 86.7837 12.5331V14.468C87.1349 14.7284 87.4014 14.901 87.5831 14.9858C87.7648 15.0706 87.9707 15.113 88.2008 15.113Z" fill="#C69B92"/>
<path d="M96.3132 16.6755C95.7136 16.6755 95.1564 16.5423 94.6417 16.2758C94.1269 16.0093 93.709 15.6127 93.388 15.0858C93.0731 14.5589 92.9156 13.9108 92.9156 13.1417C92.9156 12.0152 93.2184 11.1159 93.8241 10.4436C94.4358 9.76534 95.2655 9.42619 96.3132 9.42619C97.0763 9.42619 97.6637 9.59879 98.0756 9.944C98.4874 10.2832 98.772 10.7162 98.9295 11.2431C99.093 11.77 99.1748 12.3181 99.1748 12.8873C99.1748 12.954 99.1748 13.0478 99.1748 13.169C99.1808 13.2901 99.1839 13.384 99.1839 13.4506H93.9513V12.2242H97.4487C97.4487 11.7457 97.3428 11.4005 97.1308 11.1886C96.9249 10.9705 96.6221 10.8615 96.2224 10.8615C95.7318 10.8615 95.3654 11.0311 95.1231 11.3702C94.8869 11.7094 94.7688 12.2787 94.7688 13.0781C94.7688 13.7988 94.9142 14.3257 95.2049 14.6588C95.4956 14.9858 95.9226 15.1494 96.4858 15.1494C96.934 15.1494 97.37 15.0979 97.7939 14.9949C98.2239 14.892 98.6509 14.7163 99.0748 14.468L99.2202 16.0033C98.7296 16.2516 98.2542 16.4242 97.7939 16.5211C97.3397 16.6241 96.8461 16.6755 96.3132 16.6755Z" fill="#C69B92"/>
<path d="M100.846 16.512V12.3241C100.846 11.6579 100.807 11.0917 100.728 10.6253C100.656 10.1529 100.583 9.79865 100.51 9.56246H102.382C102.43 9.70781 102.481 9.92583 102.536 10.2165C102.591 10.5072 102.63 10.7343 102.654 10.8979C102.987 10.4194 103.351 10.056 103.744 9.80773C104.138 9.55337 104.489 9.42619 104.798 9.42619C105.44 9.42619 105.894 9.68055 106.161 10.1893C106.433 10.6919 106.569 11.2915 106.569 11.988L105.052 12.2242C105.028 11.9153 104.952 11.667 104.825 11.4793C104.698 11.2915 104.489 11.1976 104.198 11.1976C104.047 11.1976 103.874 11.2824 103.681 11.452C103.487 11.6155 103.305 11.8275 103.136 12.0879C102.966 12.3483 102.839 12.6209 102.754 12.9055V16.512H100.846Z" fill="#C69B92"/>
<path d="M6.84352 10.3622C7.15788 6.65905 10.2633 3.75147 14.0478 3.75147H15.0808V10.3622H6.84352Z" stroke="#C69B92" stroke-width="1.23952"/>
<circle cx="12.1884" cy="7.05686" r="1.03293" fill="#C69B92"/>
<path d="M9.70936 12.8413H15.0806V15.5269C15.0806 18.6263 12.7269 21.1761 9.70936 21.4862V12.8413Z" stroke="#C69B92" stroke-width="1.23952"/>
</svg>
