<svg width="154" height="47" viewBox="0 0 154 47" fill="none" xmlns="http://www.w3.org/2000/svg">
<rect x="9.75364" y="0.609599" width="5.79119" height="39.8068" rx="0.609599" stroke="black" stroke-width="1.2192" stroke-linejoin="round"/>
<rect x="0.3048" y="7.86413" width="24.6888" height="33.467" rx="2.7432" fill="#783118" stroke="black" stroke-width="0.609599" stroke-linejoin="round"/>
<path d="M6.70581 7.80298L6.70581 41.0566" stroke="black" stroke-width="1.2192"/>
<line x1="19.2029" y1="7.7417" x2="19.2029" y2="41.6354" stroke="black" stroke-width="1.2192"/>
<path d="M38.1964 25.8628V13.0971H43.3077C44.2469 13.0971 45.0302 13.2363 45.6577 13.5147C46.2851 13.7931 46.7568 14.1796 47.0726 14.6741C47.3884 15.1644 47.5463 15.7296 47.5463 16.3695C47.5463 16.8682 47.4466 17.3066 47.2471 17.6847C47.0477 18.0587 46.7734 18.3662 46.4244 18.6073C46.0794 18.8441 45.6847 19.0124 45.24 19.1122V19.2368C45.7262 19.2576 46.1813 19.3947 46.6051 19.6482C47.0331 19.9017 47.3801 20.257 47.6461 20.7141C47.912 21.1671 48.045 21.7073 48.045 22.3348C48.045 23.0121 47.8767 23.6167 47.5401 24.1486C47.2077 24.6764 46.7152 25.094 46.0628 25.4015C45.4104 25.709 44.6063 25.8628 43.6505 25.8628H38.1964ZM40.8954 23.6562H43.0958C43.8479 23.6562 44.3965 23.5128 44.7414 23.2261C45.0863 22.9352 45.2587 22.5488 45.2587 22.0667C45.2587 21.7135 45.1735 21.4018 45.0032 21.1317C44.8328 20.8616 44.5897 20.6497 44.2739 20.4959C43.9622 20.3422 43.5903 20.2653 43.1581 20.2653H40.8954V23.6562ZM40.8954 18.439H42.8963C43.2662 18.439 43.5944 18.3746 43.8812 18.2457C44.1721 18.1128 44.4006 17.9258 44.5668 17.6847C44.7372 17.4437 44.8224 17.1549 44.8224 16.8183C44.8224 16.3571 44.6583 15.9851 44.33 15.7026C44.0058 15.42 43.5446 15.2787 42.9462 15.2787H40.8954V18.439ZM61.5322 19.4799C61.5322 20.872 61.2684 22.0563 60.7406 23.0329C60.217 24.0094 59.5023 24.7553 58.5964 25.2706C57.6946 25.7818 56.6807 26.0373 55.5545 26.0373C54.4201 26.0373 53.402 25.7797 52.5002 25.2644C51.5985 24.7491 50.8858 24.0032 50.3622 23.0267C49.8386 22.0501 49.5768 20.8679 49.5768 19.4799C49.5768 18.0878 49.8386 16.9035 50.3622 15.927C50.8858 14.9504 51.5985 14.2066 52.5002 13.6954C53.402 13.1802 54.4201 12.9225 55.5545 12.9225C56.6807 12.9225 57.6946 13.1802 58.5964 13.6954C59.5023 14.2066 60.217 14.9504 60.7406 15.927C61.2684 16.9035 61.5322 18.0878 61.5322 19.4799ZM58.7958 19.4799C58.7958 18.5782 58.6608 17.8177 58.3907 17.1985C58.1247 16.5794 57.7486 16.1098 57.2625 15.7898C56.7763 15.4699 56.207 15.3099 55.5545 15.3099C54.9021 15.3099 54.3328 15.4699 53.8466 15.7898C53.3604 16.1098 52.9823 16.5794 52.7122 17.1985C52.4462 17.8177 52.3132 18.5782 52.3132 19.4799C52.3132 20.3817 52.4462 21.1421 52.7122 21.7613C52.9823 22.3805 53.3604 22.85 53.8466 23.17C54.3328 23.49 54.9021 23.65 55.5545 23.65C56.207 23.65 56.7763 23.49 57.2625 23.17C57.7486 22.85 58.1247 22.3805 58.3907 21.7613C58.6608 21.1421 58.7958 20.3817 58.7958 19.4799ZM74.2092 13.0971V25.8628H71.8779L66.3241 17.8281H66.2306V25.8628H63.5316V13.0971H65.9002L71.4104 21.1255H71.5226V13.0971H74.2092ZM82.808 13.0971L85.8934 22.796H86.0119L89.1036 13.0971H92.0955L87.6948 25.8628H84.2167L79.8098 13.0971H82.808ZM104.643 19.4799C104.643 20.872 104.379 22.0563 103.851 23.0329C103.328 24.0094 102.613 24.7553 101.707 25.2706C100.805 25.7818 99.7915 26.0373 98.6654 26.0373C97.5309 26.0373 96.5128 25.7797 95.6111 25.2644C94.7093 24.7491 93.9967 24.0032 93.4731 23.0267C92.9495 22.0501 92.6877 20.8679 92.6877 19.4799C92.6877 18.0878 92.9495 16.9035 93.4731 15.927C93.9967 14.9504 94.7093 14.2066 95.6111 13.6954C96.5128 13.1802 97.5309 12.9225 98.6654 12.9225C99.7915 12.9225 100.805 13.1802 101.707 13.6954C102.613 14.2066 103.328 14.9504 103.851 15.927C104.379 16.9035 104.643 18.0878 104.643 19.4799ZM101.907 19.4799C101.907 18.5782 101.772 17.8177 101.502 17.1985C101.236 16.5794 100.86 16.1098 100.373 15.7898C99.8871 15.4699 99.3178 15.3099 98.6654 15.3099C98.013 15.3099 97.4437 15.4699 96.9575 15.7898C96.4713 16.1098 96.0931 16.5794 95.823 17.1985C95.5571 17.8177 95.4241 18.5782 95.4241 19.4799C95.4241 20.3817 95.5571 21.1421 95.823 21.7613C96.0931 22.3805 96.4713 22.85 96.9575 23.17C97.4437 23.49 98.013 23.65 98.6654 23.65C99.3178 23.65 99.8871 23.49 100.373 23.17C100.86 22.85 101.236 22.3805 101.502 21.7613C101.772 21.1421 101.907 20.3817 101.907 19.4799ZM105.123 13.0971H108.146L111.057 18.5948H111.182L114.093 13.0971H117.116L112.46 21.3499V25.8628H109.779V21.3499L105.123 13.0971ZM119.488 25.8628H116.595L121.002 13.0971H124.48L128.881 25.8628H125.989L122.791 16.0142H122.692L119.488 25.8628ZM119.307 20.845H126.139V22.9519H119.307V20.845ZM138.283 17.2235C138.195 16.9201 138.073 16.6521 137.915 16.4194C137.757 16.1825 137.564 15.9831 137.335 15.821C137.111 15.6548 136.853 15.528 136.562 15.4408C136.275 15.3535 135.958 15.3099 135.608 15.3099C134.956 15.3099 134.383 15.4719 133.888 15.7961C133.398 16.1202 133.015 16.5918 132.741 17.211C132.467 17.826 132.33 18.5782 132.33 19.4675C132.33 20.3567 132.465 21.113 132.735 21.7364C133.005 22.3597 133.387 22.8355 133.882 23.1638C134.376 23.4879 134.96 23.65 135.633 23.65C136.244 23.65 136.766 23.5419 137.198 23.3259C137.634 23.1056 137.967 22.796 138.195 22.3971C138.428 21.9982 138.544 21.5265 138.544 20.9821L139.093 21.0632H135.802V19.0311H141.144V20.6393C141.144 21.7613 140.907 22.7254 140.433 23.5315C139.959 24.3336 139.307 24.9527 138.476 25.3891C137.645 25.8212 136.693 26.0373 135.621 26.0373C134.424 26.0373 133.373 25.7734 132.467 25.2457C131.561 24.7138 130.855 23.9596 130.348 22.983C129.845 22.0023 129.593 20.8388 129.593 19.4924C129.593 18.4577 129.743 17.5351 130.042 16.7248C130.345 15.9103 130.769 15.2205 131.314 14.6554C131.858 14.0902 132.492 13.6601 133.215 13.3651C133.938 13.07 134.721 12.9225 135.565 12.9225C136.288 12.9225 136.961 13.0285 137.584 13.2404C138.208 13.4482 138.76 13.7432 139.242 14.1255C139.729 14.5079 140.125 14.9629 140.433 15.4906C140.74 16.0142 140.938 16.5918 141.025 17.2235H138.283ZM143.171 25.8628V13.0971H151.773V15.3223H145.87V18.3642H151.33V20.5894H145.87V23.6375H151.798V25.8628H143.171Z" fill="black"/>
<path d="M44.6917 34.2984H43.1347C43.1063 34.0969 43.0482 33.918 42.9605 33.7616C42.8729 33.6028 42.7603 33.4677 42.6228 33.3564C42.4854 33.245 42.3266 33.1597 42.1465 33.1004C41.9688 33.0412 41.7756 33.0116 41.5671 33.0116C41.1903 33.0116 40.862 33.1052 40.5824 33.2924C40.3028 33.4772 40.0859 33.7474 39.9319 34.1029C39.7778 34.456 39.7008 34.8849 39.7008 35.3897C39.7008 35.9087 39.7778 36.3447 39.9319 36.6979C40.0883 37.051 40.3063 37.3176 40.586 37.4977C40.8656 37.6778 41.1891 37.7678 41.5564 37.7678C41.7626 37.7678 41.9534 37.7406 42.1287 37.6861C42.3065 37.6316 42.4641 37.5522 42.6015 37.4479C42.739 37.3413 42.8527 37.2121 42.9428 37.0604C43.0352 36.9088 43.0992 36.7358 43.1347 36.5414L44.6917 36.5486C44.6514 36.8827 44.5507 37.205 44.3896 37.5155C44.2308 37.8235 44.0163 38.0996 43.7462 38.3437C43.4784 38.5854 43.1584 38.7774 42.7864 38.9196C42.4167 39.0594 41.9984 39.1293 41.5315 39.1293C40.8822 39.1293 40.3016 38.9824 39.7897 38.6885C39.2802 38.3947 38.8773 37.9693 38.5811 37.4124C38.2872 36.8554 38.1403 36.1812 38.1403 35.3897C38.1403 34.5958 38.2896 33.9204 38.5882 33.3635C38.8868 32.8066 39.292 32.3824 39.8039 32.0909C40.3158 31.797 40.8917 31.6501 41.5315 31.6501C41.9534 31.6501 42.3444 31.7093 42.7046 31.8278C43.0672 31.9463 43.3883 32.1193 43.6679 32.3468C43.9476 32.5719 44.1751 32.848 44.3505 33.1751C44.5282 33.5021 44.642 33.8765 44.6917 34.2984ZM54.4876 35.3897C54.4876 36.1836 54.3371 36.859 54.0362 37.4159C53.7376 37.9728 53.3299 38.3982 52.8133 38.6921C52.2991 38.9836 51.7208 39.1293 51.0786 39.1293C50.4316 39.1293 49.851 38.9824 49.3367 38.6885C48.8225 38.3947 48.4161 37.9693 48.1175 37.4124C47.8189 36.8554 47.6696 36.1812 47.6696 35.3897C47.6696 34.5958 47.8189 33.9204 48.1175 33.3635C48.4161 32.8066 48.8225 32.3824 49.3367 32.0909C49.851 31.797 50.4316 31.6501 51.0786 31.6501C51.7208 31.6501 52.2991 31.797 52.8133 32.0909C53.3299 32.3824 53.7376 32.8066 54.0362 33.3635C54.3371 33.9204 54.4876 34.5958 54.4876 35.3897ZM52.9271 35.3897C52.9271 34.8754 52.85 34.4418 52.696 34.0887C52.5443 33.7355 52.3299 33.4678 52.0526 33.2853C51.7753 33.1028 51.4507 33.0116 51.0786 33.0116C50.7065 33.0116 50.3818 33.1028 50.1046 33.2853C49.8273 33.4678 49.6116 33.7355 49.4576 34.0887C49.3059 34.4418 49.2301 34.8754 49.2301 35.3897C49.2301 35.904 49.3059 36.3376 49.4576 36.6907C49.6116 37.0439 49.8273 37.3116 50.1046 37.4941C50.3818 37.6766 50.7065 37.7678 51.0786 37.7678C51.4507 37.7678 51.7753 37.6766 52.0526 37.4941C52.3299 37.3116 52.5443 37.0439 52.696 36.6907C52.85 36.3376 52.9271 35.904 52.9271 35.3897ZM57.6299 39.0298V31.7496H59.1691V37.7607H62.2902V39.0298H57.6299ZM65.3115 39.0298V31.7496H66.8508V37.7607H69.9718V39.0298H65.3115ZM72.9932 39.0298V31.7496H77.8988V33.0187H74.5324V34.7534H77.6464V36.0224H74.5324V37.7607H77.913V39.0298H72.9932ZM87.5481 34.2984H85.9911C85.9626 34.0969 85.9046 33.918 85.8169 33.7616C85.7292 33.6028 85.6166 33.4677 85.4792 33.3564C85.3417 33.245 85.183 33.1597 85.0029 33.1004C84.8251 33.0412 84.632 33.0116 84.4234 33.0116C84.0466 33.0116 83.7184 33.1052 83.4388 33.2924C83.1591 33.4772 82.9423 33.7474 82.7882 34.1029C82.6342 34.456 82.5572 34.8849 82.5572 35.3897C82.5572 35.9087 82.6342 36.3447 82.7882 36.6979C82.9446 37.051 83.1627 37.3176 83.4423 37.4977C83.7219 37.6778 84.0454 37.7678 84.4128 37.7678C84.6189 37.7678 84.8097 37.7406 84.9851 37.6861C85.1628 37.6316 85.3204 37.5522 85.4579 37.4479C85.5953 37.3413 85.7091 37.2121 85.7991 37.0604C85.8915 36.9088 85.9555 36.7358 85.9911 36.5414L87.5481 36.5486C87.5078 36.8827 87.4071 37.205 87.2459 37.5155C87.0871 37.8235 86.8727 38.0996 86.6025 38.3437C86.3347 38.5854 86.0148 38.7774 85.6427 38.9196C85.273 39.0594 84.8547 39.1293 84.3879 39.1293C83.7385 39.1293 83.1579 38.9824 82.646 38.6885C82.1365 38.3947 81.7336 37.9693 81.4374 37.4124C81.1436 36.8554 80.9966 36.1812 80.9966 35.3897C80.9966 34.5958 81.1459 33.9204 81.4445 33.3635C81.7431 32.8066 82.1484 32.3824 82.6603 32.0909C83.1721 31.797 83.748 31.6501 84.3879 31.6501C84.8097 31.6501 85.2007 31.7093 85.561 31.8278C85.9235 31.9463 86.2447 32.1193 86.5243 32.3468C86.8039 32.5719 87.0314 32.848 87.2068 33.1751C87.3845 33.5021 87.4983 33.8765 87.5481 34.2984ZM90.3766 33.0187V31.7496H96.3557V33.0187H94.1269V39.0298H92.6054V33.0187H90.3766ZM100.882 31.7496V39.0298H99.3425V31.7496H100.882ZM110.84 35.3897C110.84 36.1836 110.69 36.859 110.389 37.4159C110.09 37.9728 109.683 38.3982 109.166 38.6921C108.652 38.9836 108.073 39.1293 107.431 39.1293C106.784 39.1293 106.204 38.9824 105.689 38.6885C105.175 38.3947 104.769 37.9693 104.47 37.4124C104.171 36.8554 104.022 36.1812 104.022 35.3897C104.022 34.5958 104.171 33.9204 104.47 33.3635C104.769 32.8066 105.175 32.3824 105.689 32.0909C106.204 31.797 106.784 31.6501 107.431 31.6501C108.073 31.6501 108.652 31.797 109.166 32.0909C109.683 32.3824 110.09 32.8066 110.389 33.3635C110.69 33.9204 110.84 34.5958 110.84 35.3897ZM109.28 35.3897C109.28 34.8754 109.203 34.4418 109.049 34.0887C108.897 33.7355 108.682 33.4678 108.405 33.2853C108.128 33.1028 107.803 33.0116 107.431 33.0116C107.059 33.0116 106.734 33.1028 106.457 33.2853C106.18 33.4678 105.964 33.7355 105.81 34.0887C105.659 34.4418 105.583 34.8754 105.583 35.3897C105.583 35.904 105.659 36.3376 105.81 36.6907C105.964 37.0439 106.18 37.3116 106.457 37.4941C106.734 37.6766 107.059 37.7678 107.431 37.7678C107.803 37.7678 108.128 37.6766 108.405 37.4941C108.682 37.3116 108.897 37.0439 109.049 36.6907C109.203 36.3376 109.28 35.904 109.28 35.3897ZM120.072 31.7496V39.0298H118.742L115.575 34.4477H115.522V39.0298H113.982V31.7496H115.333L118.476 36.3282H118.54V31.7496H120.072Z" fill="black"/>
<ellipse cx="21.0926" cy="44.3177" rx="2.49936" ry="2.68224" fill="black"/>
<ellipse cx="4.69394" cy="44.3177" rx="2.49936" ry="2.68224" fill="black"/>
<rect x="3.71875" y="15.26" width="6.03503" height="6.03503" transform="rotate(-20.9072 3.71875 15.26)" fill="#F1AA00"/>
<path d="M20.0256 20.8067L21.2661 27.8786L14.5214 25.4169L20.0256 20.8067Z" fill="#2277DE"/>
<circle cx="8.38187" cy="32.5222" r="3.13944" fill="#44F066"/>
</svg>
