<svg xmlns="http://www.w3.org/2000/svg" version="1.1" xmlns:xlink="http://www.w3.org/1999/xlink" xmlns:svgjs="http://svgjs.dev/svgjs" width="1000" height="1000"><g clip-path="url(#SvgjsClipPath1144)"><rect width="1000" height="1000" fill="#fef2da"></rect><g transform="matrix(4,0,0,4,100,100)"><svg xmlns="http://www.w3.org/2000/svg" version="1.1" xmlns:xlink="http://www.w3.org/1999/xlink" xmlns:svgjs="http://svgjs.dev/svgjs" width="200" height="200"><svg width="200" height="200" viewBox="0 0 200 200" fill="none" xmlns="http://www.w3.org/2000/svg">
<rect x="87.679" y="2.59403" width="24.6433" height="169.39" rx="2.59403" stroke="black" stroke-width="5.18807" stroke-linejoin="round"></rect>
<rect x="47.4708" y="33.463" width="105.058" height="142.412" rx="11.6732" fill="#783118" stroke="black" stroke-width="2.59403" stroke-linejoin="round"></rect>
<path d="M74.708 33.2036L74.708 174.708" stroke="black" stroke-width="5.18807"></path>
<line x1="127.886" y1="32.9441" x2="127.886" y2="177.172" stroke="black" stroke-width="5.18807"></line>
<ellipse cx="135.928" cy="188.586" rx="10.6355" ry="11.4137" fill="black"></ellipse>
<ellipse cx="66.1482" cy="188.586" rx="10.6355" ry="11.4137" fill="black"></ellipse>
<rect x="61.9971" y="64.9363" width="25.6809" height="25.6809" transform="rotate(-20.9072 61.9971 64.9363)" fill="#F1AA00"></rect>
<path d="M131.391 88.5383L136.669 118.631L107.969 108.156L131.391 88.5383Z" fill="#2277DE"></path>
<circle cx="81.8427" cy="138.392" r="13.3593" fill="#44F066"></circle>
</svg></svg></g></g><defs><clipPath id="SvgjsClipPath1144"><rect width="1000" height="1000" x="0" y="0" rx="500" ry="500"></rect></clipPath></defs></svg>